<svg width="38" height="38" viewBox="0 0 38 38" fill="none" xmlns="http://www.w3.org/2000/svg">
<path d="M37.3667 19C37.3675 23.8714 35.4327 28.5435 31.9881 31.9881C28.5436 35.4326 23.8714 37.3674 19.0001 37.3666C18.6834 37.3666 18.3668 37.3603 18.0564 37.3413H18.0437C8.28495 36.8328 0.633148 28.7719 0.633148 19C0.633148 9.22807 8.28495 1.16717 18.0437 0.658701H18.0564C18.3667 0.639701 18.6834 0.633393 19.0001 0.633393C23.8715 0.632576 28.5436 2.56738 31.9881 6.01195C35.4327 9.45652 37.3675 14.1286 37.3667 19Z" fill="#607D8B"/>
<path d="M35.4667 19.0007C35.4669 28.7727 27.8151 36.8336 18.0564 37.342H18.0437C8.28495 36.8335 0.633148 28.7726 0.633148 19.0007C0.633148 9.22873 8.28495 1.16784 18.0437 0.659363H18.0564C27.815 1.16776 35.4668 9.22873 35.4667 19.0007Z" fill="#CFD8DC"/>
<path d="M30.7167 22.1667C30.7161 24.9397 29.0714 27.4483 26.5287 28.5547C23.9861 29.6611 21.0294 29.1546 19 27.2651C20.4151 25.9474 21.2182 24.1003 21.2167 22.1668C21.2158 21.6665 21.1627 21.1677 21.0584 20.6785C23.5408 20.0405 25.4708 18.0885 26.0807 15.5992C28.8618 16.5843 30.7196 19.2161 30.7167 22.1667Z" fill="#02A9F4"/>
<path d="M21.2167 22.1667C21.2182 24.1003 20.4151 25.9473 19 27.265C17.5849 25.9473 16.7818 24.1002 16.7833 22.1667C16.7824 21.6053 16.8505 21.0458 16.986 20.501C18.2956 20.9638 19.7135 21.0255 21.0583 20.6783C21.1627 21.1676 21.2158 21.6664 21.2167 22.1667Z" fill="#4CAF50"/>
<path d="M16.986 20.501C16.8505 21.0458 16.7824 21.6052 16.7833 22.1667C16.7818 24.1003 17.5849 25.9473 19 27.265C16.8733 29.2464 13.7401 29.6994 11.1393 28.4015C8.53857 27.1036 7.01687 24.3273 7.32176 21.4368C7.62665 18.5462 9.69401 16.1485 12.5083 15.4217C13.0228 17.7748 14.716 19.6955 16.986 20.501Z" fill="#FFEB3A"/>
<path d="M19 17.0683C18.0066 17.9903 17.3062 19.184 16.986 20.501C14.7159 19.6955 13.0228 17.7748 12.5083 15.4217C14.8115 14.8265 17.259 15.4473 19 17.0683Z" fill="#FF9801"/>
<path d="M21.0583 20.6783C19.7135 21.0255 18.2956 20.9638 16.986 20.501C17.3062 19.184 18.0066 17.9903 19 17.0683C20.0395 18.0326 20.7579 19.2927 21.0583 20.6783Z" fill="#795548"/>
<path d="M26.0807 15.599C25.4707 18.0885 23.5407 20.0404 21.0584 20.6783C20.758 19.2927 20.0395 18.0326 19.0001 17.0683C20.903 15.2994 23.6309 14.7333 26.0807 15.599Z" fill="#9D27B0"/>
<path d="M26.2833 13.9333C26.2842 14.4947 26.2161 15.0542 26.0806 15.599C23.6309 14.7333 20.903 15.2994 18.9999 17.0683C17.259 15.4473 14.8114 14.8264 12.5082 15.4216C12.4038 14.9324 12.3507 14.4335 12.3499 13.9333C12.3499 10.0857 15.469 6.96661 19.3166 6.96661C23.1642 6.96661 26.2833 10.0857 26.2833 13.9333Z" fill="#F44335"/>
<path d="M19 0C8.50658 0 0 8.50658 0 19C0 29.4934 8.50658 38 19 38C29.4934 38 38 29.4934 38 19C37.9881 8.51155 29.4885 0.011875 19 0ZM19 36.7333C9.20617 36.7333 1.26669 28.7938 1.26669 19C1.26669 9.20617 9.20617 1.26669 19 1.26669C28.7938 1.26669 36.7333 9.20617 36.7333 19C36.7223 28.7893 28.7893 36.7223 19 36.7333Z" fill="black"/>
<path d="M26.8426 15.3068C26.9156 14.8925 26.9536 14.4728 26.9563 14.0521C26.9796 11.2029 25.4074 8.57991 22.8834 7.25755C20.3595 5.9352 17.308 6.13566 14.9787 7.77679C12.6494 9.41791 11.4338 12.224 11.8297 15.0458C8.97141 16.0171 6.96476 18.5953 6.72496 21.6045C6.48516 24.6137 8.05815 27.4772 10.7265 28.8889C13.3948 30.3006 16.6471 29.99 19 28.0988C21.2847 29.9596 24.4416 30.3255 27.0913 29.0366C29.7411 27.7477 31.4022 25.0384 31.3488 22.0923C31.2955 19.1462 29.5374 16.4988 26.8426 15.3068ZM13.0229 14.0521C13.045 10.5699 15.8741 7.75868 19.3562 7.75868C22.8384 7.75868 25.6676 10.5699 25.6896 14.0521C25.6875 14.332 25.6666 14.6115 25.6269 14.8887C23.3169 14.2876 20.8587 14.8162 18.9999 16.3137C17.3368 14.9658 15.1754 14.3955 13.0637 14.7474C13.0373 14.5166 13.0237 14.2844 13.0229 14.0521ZM20.5833 22.2062C20.5823 23.7366 20.0188 25.2133 19 26.3553C17.7764 25.0025 17.219 23.175 17.4793 21.3696C18.4784 21.6357 19.523 21.6838 20.5424 21.5109C20.569 21.7418 20.5826 21.9739 20.5833 22.2062ZM19.3562 20.3458C18.8225 20.3437 18.2911 20.2743 17.7748 20.1392C18.0447 19.3724 18.4607 18.6653 19 18.0572C19.5722 18.7002 20.0059 19.4541 20.2743 20.272C19.9705 20.3188 19.6637 20.3434 19.3562 20.3458ZM16.5869 19.7036C15.0433 18.9565 13.8687 17.6151 13.332 15.9863C15.0111 15.7248 16.724 16.1631 18.0712 17.199C17.4185 17.9296 16.9145 18.7803 16.5869 19.7036ZM19.9288 17.199C21.4668 16.0251 23.4605 15.6266 25.3315 16.1192C24.6978 17.9088 23.2947 19.3199 21.5086 19.9637C21.1848 18.9402 20.6462 17.9976 19.9288 17.199ZM7.91669 22.2062C7.92604 19.5517 9.59797 17.1878 12.0977 16.2946C12.7554 18.3719 14.2722 20.0675 16.2636 20.9516C15.8635 23.2062 16.5311 25.5189 18.0712 27.2135C16.1613 28.6621 13.5969 28.9075 11.4468 27.8473C9.29679 26.7872 7.9302 24.6034 7.91669 22.2062ZM23.75 28.5C22.37 28.5 21.0279 28.0482 19.9288 27.2135C21.4088 25.5888 22.0864 23.3883 21.7766 21.2126C23.9882 20.4695 25.7363 18.7526 26.5193 16.5548C29.1718 17.8276 30.5855 20.771 29.9211 23.637C29.2566 26.5031 26.692 28.5241 23.75 28.5Z" fill="black"/>
</svg>
